HIERARCHY
ROOT root
{
	OFFSET	0	13.1	24.9
	CHANNELS 6  Xposition Yposition Zposition Xrotation Yrotation Zrotation
	JOINT spine_1
	{
		OFFSET	0	9.99999	0
		CHANNELS 3  Xrotation Yrotation Zrotation
		JOINT spine_2
		{
			OFFSET	0	112	-10
			CHANNELS 3  Xrotation Yrotation Zrotation
			JOINT spine_3
			{
				OFFSET	0	206.5	19.3
				CHANNELS 3  Xrotation Yrotation Zrotation
				JOINT spine_4
				{
					OFFSET	0	110.4	14.6
					CHANNELS 3  Xrotation Yrotation Zrotation
					JOINT neck_1
					{
						OFFSET	0	71.8	-50.3
						CHANNELS 3  Xrotation Yrotation Zrotation
						JOINT neck_2
						{
							OFFSET	0	86.2	-25.8
							CHANNELS 3  Xrotation Yrotation Zrotation
							JOINT head_ee
							{
								OFFSET	0	179.8	-8.7
								CHANNELS 3  Xrotation Yrotation Zrotation
								End Site
								{
									OFFSET	1	0	0
								}
							}
						}
					}
					JOINT left_clavicle
					{
						OFFSET	-43.2	22.4	-70.8
						CHANNELS 3  Xrotation Yrotation Zrotation
						JOINT left_shoulder
						{
							OFFSET	-93.9	-5.79999	48.7
							CHANNELS 3  Xrotation Yrotation Zrotation
							JOINT left_elbow
							{
								OFFSET	-291.4	-30.8	15.2
								CHANNELS 3  Xrotation Yrotation Zrotation
								JOINT left_lowarm_twist
								{
									OFFSET	-110.7	-3.89999	13.6
									CHANNELS 3  Xrotation Yrotation Zrotation
									JOINT left_hand
									{
										OFFSET	-110.7	-3.89999	13.6
										CHANNELS 3  Xrotation Yrotation Zrotation
										JOINT left_ee
										{
											OFFSET	-80.8	-5.10001	12.1
											CHANNELS 3  Xrotation Yrotation Zrotation
											End Site
											{
												OFFSET	1	0	0
											}
										}
									}
								}
							}
						}
					}
					JOINT right_clavicle
					{
						OFFSET	43.2	22.4	-70.8
						CHANNELS 3  Xrotation Yrotation Zrotation
						JOINT right_shoulder
						{
							OFFSET	93.9	-5.79999	48.7
							CHANNELS 3  Xrotation Yrotation Zrotation
							JOINT right_elbow
							{
								OFFSET	291.4	-30.8	15.2
								CHANNELS 3  Xrotation Yrotation Zrotation
								JOINT right_lowarm_twist
								{
									OFFSET	110.7	-3.89999	13.6
									CHANNELS 3  Xrotation Yrotation Zrotation
									JOINT right_hand
									{
										OFFSET	110.7	-3.89999	13.6
										CHANNELS 3  Xrotation Yrotation Zrotation
										JOINT right_ee
										{
											OFFSET	80.8	-5.10001	12.1
											CHANNELS 3  Xrotation Yrotation Zrotation
											End Site
											{
												OFFSET	1	0	0
											}
										}
									}
								}
							}
						}
					}
				}
			}
		}
	}
	JOINT left_hip
	{
		OFFSET	-82.8	-127.5	0.300001
		CHANNELS 3  Xrotation Yrotation Zrotation
		JOINT left_knee
		{
			OFFSET	-28.2	-396.7	2.2
			CHANNELS 3  Xrotation Yrotation Zrotation
			JOINT left_ankle
			{
				OFFSET	-11.7	-411.3	35.4
				CHANNELS 3  Xrotation Yrotation Zrotation
				JOINT left_toes
				{
					OFFSET	0	-60	-88.6
					CHANNELS 3  Xrotation Yrotation Zrotation
					JOINT left_foot_ee
					{
						OFFSET	-22.5	-16.5	-42.2
						CHANNELS 3  Xrotation Yrotation Zrotation
						End Site
						{
							OFFSET	1	0	0
						}
					}
				}
			}
		}
	}
	JOINT right_hip
	{
		OFFSET	82.8	-127.5	0.300001
		CHANNELS 3  Xrotation Yrotation Zrotation
		JOINT right_knee
		{
			OFFSET	28.2	-396.7	2.2
			CHANNELS 3  Xrotation Yrotation Zrotation
			JOINT right_ankle
			{
				OFFSET	11.7	-411.3	35.4
				CHANNELS 3  Xrotation Yrotation Zrotation
				JOINT right_toes
				{
					OFFSET	0	-60	-88.6
					CHANNELS 3  Xrotation Yrotation Zrotation
					JOINT right_foot_ee
					{
						OFFSET	22.5	-16.5	-42.2
						CHANNELS 3  Xrotation Yrotation Zrotation
						End Site
						{
							OFFSET	1	0	0
						}
					}
				}
			}
		}
	}
}
MOTION
Frames: 14
Frame Time: 0.02
3574.42 741.953 -1474.73 109.771247632 86.5422405837 -105.018730876 -0.354961 -0.690537 -3.2193 -0.349326 -0.484397 -3.25666 -0.317894 0.229102 -3.28448 -0.332827 -0.292209 -3.27947 -8.18381 -0.0688451 4.94968 -8.11282 -3.61778 4.88616 -0.0 0.0 -0.0 6.18077 18.4693 11.593 1.82915 -24.2431 69.5701 2.06497 -45.6438 0.86904 -51.5999 -4.26042 4.76395 1.6277 23.0615 18.9575 -0.0 0.0 -0.0 -2.18074 5.70407 5.10058 -10.7741 18.8641 -74.6507 0.19572 5.53788 -0.00946594 21.5829 -0.249013 2.72951 0.73935 -3.66388 -6.43065 0.0 0.0 0.0 -1.43054 18.4382 -6.87876 -6.59682 0.21486 0.989061 40.0168 13.6259 -4.91488 -23.7476 0.0 0.0 -0.0 0.0 -0.0 5.45967 13.4574 -10.7501 -22.5782 -0.256114 -3.43296 32.8064 2.55453 4.22539 -14.8148 0.0 0.0 0.0 0.0 0.0 
3574.42 741.953 -1474.73 101.979899158 86.6737772135 -97.2137561865 -0.354961 -0.690537 -3.2193 -0.349326 -0.484397 -3.25666 -0.317894 0.229102 -3.28448 -0.332827 -0.292209 -3.27947 -8.18381 -0.0688451 4.94968 -8.11282 -3.61778 4.88616 -0.0 0.0 -0.0 6.18077 18.4693 11.593 1.82915 -24.2431 69.5701 2.06497 -45.6438 0.86904 -51.5999 -4.26042 4.76395 1.6277 23.0615 18.9575 -0.0 0.0 -0.0 -2.18074 5.70407 5.10058 -10.7741 18.8641 -74.6507 0.19572 5.53788 -0.00946594 21.5829 -0.249013 2.72951 0.73935 -3.66388 -6.43065 0.0 0.0 0.0 -1.43054 18.4382 -6.87876 -6.59682 0.21486 0.989061 40.0168 13.6259 -4.91488 -23.7476 0.0 0.0 -0.0 0.0 -0.0 5.45967 13.4574 -10.7501 -22.5782 -0.256114 -3.43296 32.8064 2.55453 4.22539 -14.8148 0.0 0.0 0.0 0.0 0.0 
3574.42 741.953 -1474.73 89.9697379122 86.7462991355 -85.1839157788 -0.354961 -0.690537 -3.2193 -0.349326 -0.484397 -3.25666 -0.317894 0.229102 -3.28448 -0.332827 -0.292209 -3.27947 -8.18381 -0.0688451 4.94968 -8.11282 -3.61778 4.88616 -0.0 0.0 -0.0 6.18077 18.4693 11.593 1.82915 -24.2431 69.5701 2.06497 -45.6438 0.86904 -51.5999 -4.26042 4.76395 1.6277 23.0615 18.9575 -0.0 0.0 -0.0 -2.18074 5.70407 5.10058 -10.7741 18.8641 -74.6507 0.19572 5.53788 -0.00946594 21.5829 -0.249013 2.72951 0.73935 -3.66388 -6.43065 0.0 0.0 0.0 -1.43054 18.4382 -6.87876 -6.59682 0.21486 0.989061 40.0168 13.6259 -4.91488 -23.7476 0.0 0.0 -0.0 0.0 -0.0 5.45967 13.4574 -10.7501 -22.5782 -0.256114 -3.43296 32.8064 2.55453 4.22539 -14.8148 0.0 0.0 0.0 0.0 0.0 
3574.42 741.953 -1474.73 71.1239567795 86.5611562954 -66.3065506405 -0.354961 -0.690537 -3.2193 -0.349326 -0.484397 -3.25666 -0.317894 0.229102 -3.28448 -0.332827 -0.292209 -3.27947 -8.18381 -0.0688451 4.94968 -8.11282 -3.61778 4.88616 -0.0 0.0 -0.0 6.18077 18.4693 11.593 1.82915 -24.2431 69.5701 2.06497 -45.6438 0.86904 -51.5999 -4.26042 4.76395 1.6277 23.0615 18.9575 -0.0 0.0 -0.0 -2.18074 5.70407 5.10058 -10.7741 18.8641 -74.6507 0.19572 5.53788 -0.00946594 21.5829 -0.249013 2.72951 0.73935 -3.66388 -6.43065 0.0 0.0 0.0 -1.43054 18.4382 -6.87876 -6.59682 0.21486 0.989061 40.0168 13.6259 -4.91488 -23.7476 0.0 0.0 -0.0 0.0 -0.0 5.45967 13.4574 -10.7501 -22.5782 -0.256114 -3.43296 32.8064 2.55453 4.22539 -14.8148 0.0 0.0 0.0 0.0 0.0 
3574.42 741.953 -1474.73 55.2498478027 86.0389924757 -50.3998730623 -0.354961 -0.690537 -3.2193 -0.349326 -0.484397 -3.25666 -0.317894 0.229102 -3.28448 -0.332827 -0.292209 -3.27947 -8.18381 -0.0688451 4.94968 -8.11282 -3.61778 4.88616 -0.0 0.0 -0.0 6.18077 18.4693 11.593 1.82915 -24.2431 69.5701 2.06497 -45.6438 0.86904 -51.5999 -4.26042 4.76395 1.6277 23.0615 18.9575 -0.0 0.0 -0.0 -2.18074 5.70407 5.10058 -10.7741 18.8641 -74.6507 0.19572 5.53788 -0.00946594 21.5829 -0.249013 2.72951 0.73935 -3.66388 -6.43065 0.0 0.0 0.0 -1.43054 18.4382 -6.87876 -6.59682 0.21486 0.989061 40.0168 13.6259 -4.91488 -23.7476 0.0 0.0 -0.0 0.0 -0.0 5.45967 13.4574 -10.7501 -22.5782 -0.256114 -3.43296 32.8064 2.55453 4.22539 -14.8148 0.0 0.0 0.0 0.0 0.0 
3574.42 741.953 -1474.73 42.5585473609 85.1862002999 -37.6719278373 -0.354961 -0.690537 -3.2193 -0.349326 -0.484397 -3.25666 -0.317894 0.229102 -3.28448 -0.332827 -0.292209 -3.27947 -8.18381 -0.0688451 4.94968 -8.11282 -3.61778 4.88616 -0.0 0.0 -0.0 6.18077 18.4693 11.593 1.82915 -24.2431 69.5701 2.06497 -45.6438 0.86904 -51.5999 -4.26042 4.76395 1.6277 23.0615 18.9575 -0.0 0.0 -0.0 -2.18074 5.70407 5.10058 -10.7741 18.8641 -74.6507 0.19572 5.53788 -0.00946594 21.5829 -0.249013 2.72951 0.73935 -3.66388 -6.43065 0.0 0.0 0.0 -1.43054 18.4382 -6.87876 -6.59682 0.21486 0.989061 40.0168 13.6259 -4.91488 -23.7476 0.0 0.0 -0.0 0.0 -0.0 5.45967 13.4574 -10.7501 -22.5782 -0.256114 -3.43296 32.8064 2.55453 4.22539 -14.8148 0.0 0.0 0.0 0.0 0.0 
3574.42 741.953 -1474.73 32.7146899215 83.9718332808 -27.7846164599 -0.354961 -0.690537 -3.2193 -0.349326 -0.484397 -3.25666 -0.317894 0.229102 -3.28448 -0.332827 -0.292209 -3.27947 -8.18381 -0.0688451 4.94968 -8.11282 -3.61778 4.88616 -0.0 0.0 -0.0 6.18077 18.4693 11.593 1.82915 -24.2431 69.5701 2.06497 -45.6438 0.86904 -51.5999 -4.26042 4.76395 1.6277 23.0615 18.9575 -0.0 0.0 -0.0 -2.18074 5.70407 5.10058 -10.7741 18.8641 -74.6507 0.19572 5.53788 -0.00946594 21.5829 -0.249013 2.72951 0.73935 -3.66388 -6.43065 0.0 0.0 0.0 -1.43054 18.4382 -6.87876 -6.59682 0.21486 0.989061 40.0168 13.6259 -4.91488 -23.7476 0.0 0.0 -0.0 0.0 -0.0 5.45967 13.4574 -10.7501 -22.5782 -0.256114 -3.43296 32.8064 2.55453 4.22539 -14.8148 0.0 0.0 0.0 0.0 0.0 
3574.42 741.953 -1474.73 25.0484740309 82.2959655424 -20.0640133144 -0.354961 -0.690537 -3.2193 -0.349326 -0.484397 -3.25666 -0.317894 0.229102 -3.28448 -0.332827 -0.292209 -3.27947 -8.18381 -0.0688451 4.94968 -8.11282 -3.61778 4.88616 -0.0 0.0 -0.0 6.18077 18.4693 11.593 1.82915 -24.2431 69.5701 2.06497 -45.6438 0.86904 -51.5999 -4.26042 4.76395 1.6277 23.0615 18.9575 -0.0 0.0 -0.0 -2.18074 5.70407 5.10058 -10.7741 18.8641 -74.6507 0.19572 5.53788 -0.00946594 21.5829 -0.249013 2.72951 0.73935 -3.66388 -6.43065 0.0 0.0 0.0 -1.43054 18.4382 -6.87876 -6.59682 0.21486 0.989061 40.0168 13.6259 -4.91488 -23.7476 0.0 0.0 -0.0 0.0 -0.0 5.45967 13.4574 -10.7501 -22.5782 -0.256114 -3.43296 32.8064 2.55453 4.22539 -14.8148 0.0 0.0 0.0 0.0 0.0 
3574.42 741.953 -1474.73 19.3224564401 80.1230907621 -14.2710924726 -0.354961 -0.690537 -3.2193 -0.349326 -0.484397 -3.25666 -0.317894 0.229102 -3.28448 -0.332827 -0.292209 -3.27947 -8.18381 -0.0688451 4.94968 -8.11282 -3.61778 4.88616 -0.0 0.0 -0.0 6.18077 18.4693 11.593 1.82915 -24.2431 69.5701 2.06497 -45.6438 0.86904 -51.5999 -4.26042 4.76395 1.6277 23.0615 18.9575 -0.0 0.0 -0.0 -2.18074 5.70407 5.10058 -10.7741 18.8641 -74.6507 0.19572 5.53788 -0.00946594 21.5829 -0.249013 2.72951 0.73935 -3.66388 -6.43065 0.0 0.0 0.0 -1.43054 18.4382 -6.87876 -6.59682 0.21486 0.989061 40.0168 13.6259 -4.91488 -23.7476 0.0 0.0 -0.0 0.0 -0.0 5.45967 13.4574 -10.7501 -22.5782 -0.256114 -3.43296 32.8064 2.55453 4.22539 -14.8148 0.0 0.0 0.0 0.0 0.0 
3548.97358905 738.04 -1487.38828956 15.9168357148 75.4307097069 -11.0372143687 -0.763754 -0.355235 -3.47928 -0.75703 -0.133257 -3.49481 -0.744343 0.649642 -3.43655 -0.760808 0.0990959 -3.49594 -7.65312 1.85092 8.71146 -7.4351 -2.77514 9.06145 -0.0 0.0 -0.0 4.75296 15.2227 9.41611 -1.16244 -30.7784 68.4455 2.95767 -55.6743 1.56211 -45.4436 -3.5478 4.42365 0.666208 16.5333 10.875 -0.0 0.0 -0.0 -1.55395 5.71199 3.82607 -11.3483 17.5528 -73.0024 0.218962 6.19068 -0.0118408 22.0995 -0.242301 2.79516 -0.548481 -14.8834 -2.68355 0.0 0.0 0.0 1.50312 18.6842 -8.47471 -14.2541 0.319825 2.15847 41.9031 17.0308 -5.13551 -26.8863 0.0 0.0 -0.0 0.0 -0.0 2.95381 20.2729 -11.1028 -22.134 -0.264185 -3.36528 38.1836 3.06359 4.74582 -16.016 0.0 0.0 0.0 0.0 0.0 
3539.94268226 737.521 -1489.87276082 15.7161830324 73.7835739674 -10.4444384501 -0.867312 -0.27284 -3.71022 -0.859656 -0.0363629 -3.72005 -0.852157 0.801486 -3.63298 -0.870505 0.218081 -3.71384 -8.82243 2.6742 9.08318 -8.58892 -1.31841 9.55821 -0.0 0.0 -0.0 3.98601 14.8685 8.16915 -1.04493 -32.197 70.5174 2.91185 -55.2568 1.52435 -45.3985 -3.54271 4.42087 0.250827 13.4806 7.12146 -0.0 0.0 -0.0 -1.23769 7.22044 3.38869 -9.56521 16.6968 -72.2623 0.204909 5.79616 -0.0103734 23.033 -0.228672 2.91362 -0.986676 -19.2647 -1.8712 0.0 0.0 0.0 1.87321 19.992 -9.10114 -16.8017 0.320005 2.54931 41.9209 16.6226 -5.12928 -24.6598 0.0 0.0 -0.0 0.0 -0.0 0.838677 22.153 -10.4104 -19.3588 -0.302717 -2.94123 38.4702 5.15876 4.79982 -16.2243 0.0 0.0 0.0 0.0 0.0 
3502.24384265 735.241 -1495.20784036 27.0461505153 75.2717698194 -22.1840632189 -1.13948 -0.346408 -3.49455 -1.13269 -0.123479 -3.50949 -1.1199 0.685089 -3.44426 -1.13643 0.132884 -3.50914 -10.4164 3.39487 8.90075 -10.1939 0.426119 9.5128 -0.0 0.0 -0.0 2.73568 19.1266 6.32291 -3.49377 -29.637 72.6436 2.70493 -53.2566 1.35639 -45.9352 -3.60332 4.45361 -0.35554 9.80244 1.77983 -0.0 0.0 -0.0 -0.702556 9.34014 2.5621 -3.52836 19.4911 -72.4327 0.243544 6.87934 -0.0146384 23.1201 -0.227302 2.92466 -1.33098 -23.0857 -1.52572 0.0 0.0 0.0 3.11483 12.0921 -8.56025 -28.848 0.0864646 4.37973 42.0486 17.2602 -5.15261 -20.2021 0.0 0.0 -0.0 0.0 -0.0 -5.33668 25.7812 -9.93458 -18.6798 -0.309013 -2.83724 40.1562 0.10099 4.89009 -12.8247 0.0 0.0 0.0 0.0 0.0 
3493.32973865 732.539 -1500.30075249 25.7810107368 73.645142796 -21.0819043362 -1.14407 -0.272932 -3.3916 -1.13767 -0.0566902 -3.40208 -1.12952 0.726066 -3.32427 -1.14488 0.192266 -3.39712 -11.2377 3.73155 8.67659 -11.0274 1.34937 9.37649 -0.0 0.0 -0.0 2.32875 20.2196 5.76467 -4.83121 -29.3372 72.7795 2.6193 -52.3697 1.28817 -46.819 -3.70378 4.50628 -0.531707 9.69708 0.605619 -0.0 0.0 -0.0 -0.419616 10.3379 2.0982 -1.23162 20.9794 -72.2734 0.248024 7.00463 -0.0151798 23.0817 -0.227908 2.91979 -1.42583 -24.5941 -1.65907 0.0 0.0 0.0 3.99937 10.3354 -9.02489 -33.6916 -0.114944 5.09551 41.8694 15.9044 -5.11185 -17.4709 0.0 0.0 -0.0 0.0 -0.0 -7.52422 24.6796 -9.35059 -17.3062 -0.317979 -2.62669 40.5591 -1.18094 4.91608 -11.4259 0.0 0.0 0.0 0.0 0.0 
3481.8286015 733.883 -1502.70247504 26.7271315309 72.6427258722 -22.0858654484 -1.16794 -0.22021 -3.30052 -1.16188 -0.00985962 -3.30784 -1.15684 0.75157 -3.22143 -1.17124 0.233663 -3.2996 -11.276 3.91918 8.62703 -11.0689 1.74364 9.37779 -0.0 0.0 -0.0 1.96643 21.5315 5.30612 -6.42607 -28.5814 72.7252 2.53366 -51.4456 1.22076 -46.6473 -3.6842 4.49617 -0.553308 9.11593 0.21976 -0.0 0.0 -0.0 -0.0835767 11.0982 1.48876 0.0232488 21.9987 -72.3483 0.259729 7.33169 -0.0166404 23.117 -0.227351 2.92427 -1.42219 -24.736 -1.74336 0.0 0.0 0.0 4.25541 7.80492 -8.72767 -37.3323 -0.305829 5.62118 41.559 14.8399 -5.06748 -16.4085 0.0 0.0 -0.0 0.0 -0.0 -8.67233 26.9672 -9.43597 -18.1715 -0.312919 -2.75935 40.2813 -2.60839 4.88603 -10.9441 0.0 0.0 0.0 0.0 0.0 
